<svg xmlns="http://www.w3.org/2000/svg" version="1.1" xmlns:xlink="http://www.w3.org/1999/xlink" xmlns:svgjs="http://svgjs.com/svgjs" width="1000" height="1000"><rect width="1000" height="1000" rx="200" ry="200" fill="#6e6ebf"></rect><g transform="matrix(2.25,0,0,2.25,50,50)"><svg xmlns="http://www.w3.org/2000/svg" version="1.1" xmlns:xlink="http://www.w3.org/1999/xlink" xmlns:svgjs="http://svgjs.com/svgjs" width="400" height="400"><svg id="svg" version="1.1" xmlns="http://www.w3.org/2000/svg" xmlns:xlink="http://www.w3.org/1999/xlink" width="400" height="400" viewBox="0, 0, 400,400"><g id="svgg"><path id="path0" d="M270.000 89.236 C 269.010 89.420,266.940 89.741,265.400 89.949 C 260.909 90.554,252.419 92.811,248.600 94.414 C 248.160 94.599,247.350 94.874,246.800 95.025 C 242.941 96.087,227.008 104.869,225.005 107.038 C 224.782 107.279,223.970 107.906,223.200 108.432 C 220.425 110.328,216.529 113.849,212.600 118.012 C 211.060 119.644,209.603 121.163,209.361 121.389 C 205.838 124.688,194.087 143.692,193.986 146.254 C 193.979 146.444,193.625 147.320,193.200 148.200 C 192.775 149.080,192.421 150.027,192.414 150.305 C 192.406 150.583,192.235 151.123,192.034 151.505 C 188.193 158.788,185.730 179.539,187.132 192.800 C 188.147 202.403,190.958 213.918,193.479 218.800 C 193.763 219.350,193.996 219.937,193.998 220.104 C 194.010 221.645,200.862 233.734,204.562 238.744 C 214.669 252.429,229.825 264.119,245.600 270.399 C 246.810 270.881,248.250 271.457,248.800 271.681 C 253.827 273.722,262.929 275.860,272.200 277.177 C 291.732 279.953,319.134 274.815,334.307 265.534 C 335.686 264.690,336.954 264.000,337.126 264.000 C 337.297 264.000,337.789 263.728,338.219 263.395 C 338.648 263.062,340.269 261.847,341.819 260.695 C 349.953 254.651,356.734 247.899,361.398 241.200 C 362.240 239.990,363.333 238.460,363.826 237.800 C 365.346 235.765,369.765 227.571,371.161 224.200 C 371.889 222.440,372.717 220.460,373.001 219.800 C 376.736 211.115,376.806 208.416,373.320 207.538 C 372.366 207.298,371.489 206.944,371.370 206.751 C 371.250 206.558,370.848 206.394,370.476 206.386 C 370.104 206.379,369.080 206.025,368.200 205.600 C 367.320 205.175,366.296 204.821,365.924 204.814 C 365.552 204.806,365.136 204.620,365.000 204.400 C 364.864 204.180,364.448 203.994,364.076 203.986 C 363.704 203.979,362.680 203.625,361.800 203.200 C 360.920 202.775,359.973 202.421,359.695 202.414 C 359.417 202.406,358.877 202.241,358.495 202.047 C 358.113 201.853,356.720 201.298,355.400 200.814 C 353.101 199.972,352.079 199.589,348.300 198.155 C 347.365 197.800,345.880 197.246,345.000 196.923 C 344.120 196.600,342.890 196.081,342.268 195.768 C 340.349 194.805,338.800 196.103,338.800 198.674 C 338.800 199.388,337.584 203.269,336.818 205.000 C 332.023 215.836,326.262 223.317,318.400 228.917 C 315.091 231.274,307.939 235.200,306.955 235.200 C 306.685 235.200,305.955 235.452,305.332 235.759 C 299.026 238.874,280.414 240.104,271.400 238.002 C 259.319 235.185,251.053 230.742,243.188 222.836 C 239.346 218.974,234.800 213.231,234.800 212.238 C 234.800 212.098,234.371 211.304,233.846 210.472 C 232.516 208.366,230.712 203.886,229.467 199.600 C 226.392 189.009,226.943 171.946,230.639 163.286 C 230.948 162.564,231.200 161.803,231.200 161.595 C 231.200 158.756,238.922 147.031,243.850 142.385 C 248.951 137.577,259.101 131.200,261.652 131.200 C 261.975 131.200,262.411 131.047,262.620 130.860 C 264.545 129.139,274.664 127.473,283.200 127.473 C 291.736 127.473,301.855 129.139,303.780 130.860 C 303.989 131.047,304.390 131.200,304.671 131.200 C 305.400 131.200,311.373 134.029,311.533 134.449 C 311.607 134.642,311.883 134.800,312.147 134.800 C 315.045 134.800,328.694 147.558,332.267 153.607 C 333.037 154.910,334.245 155.094,334.850 154.000 C 335.374 153.053,338.818 147.064,339.221 146.400 C 339.421 146.070,340.676 143.910,342.009 141.600 C 343.342 139.290,344.602 137.130,344.807 136.800 C 346.227 134.524,348.800 130.059,348.800 129.869 C 348.800 129.743,349.295 128.866,349.900 127.920 C 351.620 125.231,351.946 124.683,352.593 123.400 C 352.926 122.740,353.546 121.660,353.970 121.000 C 354.394 120.340,354.755 119.550,354.771 119.245 C 354.833 118.058,347.683 111.209,341.800 106.820 C 335.769 102.321,329.059 98.702,320.630 95.403 C 313.992 92.805,306.438 91.004,295.525 89.420 C 290.861 88.743,273.323 88.616,270.000 89.236 M45.100 92.832 C 43.946 93.504,44.020 272.968,45.174 273.586 C 46.019 274.038,80.154 274.189,82.350 273.750 L 83.600 273.500 83.600 241.383 C 83.600 223.718,83.709 208.981,83.843 208.633 C 84.061 208.063,87.320 208.000,116.594 208.000 C 143.571 208.000,149.179 207.907,149.555 207.454 C 149.881 207.061,149.979 201.825,149.904 188.754 L 149.800 170.600 117.238 170.498 C 93.990 170.425,84.522 170.268,84.138 169.949 C 83.453 169.380,83.335 132.442,84.014 131.174 C 84.420 130.416,85.329 130.400,127.771 130.400 C 166.926 130.400,171.138 130.339,171.357 129.767 C 171.771 128.688,171.633 94.539,171.210 93.426 L 170.820 92.400 108.310 92.412 C 66.595 92.420,45.567 92.560,45.100 92.832 " stroke="none" fill="#fbfbfb" fill-rule="evenodd"></path><path id="path1" d="M0.000 200.000 L 0.000 400.000 200.000 400.000 L 400.000 400.000 400.000 200.000 L 400.000 0.000 200.000 0.000 L 0.000 0.000 0.000 200.000 M295.525 89.420 C 304.723 90.755,307.408 91.326,315.830 93.737 C 319.086 94.669,323.833 96.599,329.600 99.335 C 337.276 102.977,346.988 110.214,353.107 116.853 C 354.996 118.902,355.075 119.282,353.970 121.000 C 353.546 121.660,352.926 122.740,352.593 123.400 C 351.946 124.683,351.620 125.231,349.900 127.920 C 349.295 128.866,348.800 129.743,348.800 129.869 C 348.800 130.059,346.227 134.524,344.807 136.800 C 344.602 137.130,343.342 139.290,342.009 141.600 C 340.676 143.910,339.421 146.070,339.221 146.400 C 338.818 147.064,335.374 153.053,334.850 154.000 C 334.245 155.094,333.037 154.910,332.267 153.607 C 328.694 147.558,315.045 134.800,312.147 134.800 C 311.883 134.800,311.607 134.642,311.533 134.449 C 311.373 134.029,305.400 131.200,304.671 131.200 C 304.390 131.200,303.989 131.047,303.780 130.860 C 301.855 129.139,291.736 127.473,283.200 127.473 C 274.664 127.473,264.545 129.139,262.620 130.860 C 262.411 131.047,261.975 131.200,261.652 131.200 C 259.101 131.200,248.951 137.577,243.850 142.385 C 238.922 147.031,231.200 158.756,231.200 161.595 C 231.200 161.803,230.948 162.564,230.639 163.286 C 226.943 171.946,226.392 189.009,229.467 199.600 C 230.712 203.886,232.516 208.366,233.846 210.472 C 234.371 211.304,234.800 212.098,234.800 212.238 C 234.800 213.231,239.346 218.974,243.188 222.836 C 251.053 230.742,259.319 235.185,271.400 238.002 C 280.414 240.104,299.026 238.874,305.332 235.759 C 305.955 235.452,306.685 235.200,306.955 235.200 C 307.939 235.200,315.091 231.274,318.400 228.917 C 326.262 223.317,332.023 215.836,336.818 205.000 C 337.584 203.269,338.800 199.388,338.800 198.674 C 338.800 196.103,340.349 194.805,342.268 195.768 C 342.890 196.081,344.120 196.600,345.000 196.923 C 345.880 197.246,347.365 197.800,348.300 198.155 C 352.079 199.589,353.101 199.972,355.400 200.814 C 356.720 201.298,358.113 201.853,358.495 202.047 C 358.877 202.241,359.417 202.406,359.695 202.414 C 359.973 202.421,360.920 202.775,361.800 203.200 C 362.680 203.625,363.704 203.979,364.076 203.986 C 364.448 203.994,364.864 204.180,365.000 204.400 C 365.136 204.620,365.552 204.806,365.924 204.814 C 366.296 204.821,367.320 205.175,368.200 205.600 C 369.080 206.025,370.104 206.379,370.476 206.386 C 370.848 206.394,371.250 206.558,371.370 206.751 C 371.489 206.944,372.366 207.298,373.320 207.538 C 376.091 208.236,376.551 209.007,375.764 211.637 C 374.811 214.823,373.588 218.434,373.001 219.800 C 372.717 220.460,371.889 222.440,371.161 224.200 C 369.765 227.571,365.346 235.765,363.826 237.800 C 363.333 238.460,362.240 239.990,361.398 241.200 C 356.734 247.899,349.953 254.651,341.819 260.695 C 340.269 261.847,338.648 263.062,338.219 263.395 C 337.789 263.728,337.297 264.000,337.126 264.000 C 336.954 264.000,335.686 264.690,334.307 265.534 C 319.134 274.815,291.732 279.953,272.200 277.177 C 262.929 275.860,253.827 273.722,248.800 271.681 C 248.250 271.457,246.810 270.881,245.600 270.399 C 224.082 261.833,206.377 245.442,196.025 224.504 C 194.911 222.252,193.999 220.272,193.998 220.104 C 193.996 219.937,193.763 219.350,193.479 218.800 C 187.364 206.958,185.008 182.880,188.255 165.400 C 189.126 160.709,191.198 153.090,192.034 151.505 C 192.235 151.123,192.406 150.583,192.414 150.305 C 192.421 150.027,192.775 149.080,193.200 148.200 C 193.625 147.320,193.979 146.444,193.986 146.254 C 194.087 143.692,205.838 124.688,209.361 121.389 C 209.603 121.163,211.060 119.644,212.600 118.012 C 216.529 113.849,220.425 110.328,223.200 108.432 C 223.970 107.906,224.782 107.279,225.005 107.038 C 227.008 104.869,242.941 96.087,246.800 95.025 C 247.350 94.874,248.160 94.599,248.600 94.414 C 252.419 92.811,260.909 90.554,265.400 89.949 C 266.940 89.741,269.010 89.420,270.000 89.236 C 273.323 88.616,290.861 88.743,295.525 89.420 M171.210 93.426 C 171.633 94.539,171.771 128.688,171.357 129.767 C 171.138 130.339,166.926 130.400,127.771 130.400 C 85.329 130.400,84.420 130.416,84.014 131.174 C 83.335 132.442,83.453 169.380,84.138 169.949 C 84.522 170.268,93.990 170.425,117.238 170.498 L 149.800 170.600 149.904 188.754 C 149.979 201.825,149.881 207.061,149.555 207.454 C 149.179 207.907,143.571 208.000,116.594 208.000 C 87.320 208.000,84.061 208.063,83.843 208.633 C 83.709 208.981,83.600 223.718,83.600 241.383 L 83.600 273.500 82.350 273.750 C 80.154 274.189,46.019 274.038,45.174 273.586 C 44.020 272.968,43.946 93.504,45.100 92.832 C 45.567 92.560,66.595 92.420,108.310 92.412 L 170.820 92.400 171.210 93.426 " stroke="none" fill="#7474e4" fill-rule="evenodd"></path></g></svg></svg></g></svg>